Coordinates
version=1
nRows=16
nColumns=40
inDegrees=yes

Units are S.I. units (second, meters, Newtons, ...)
Angles are in degrees.

endheader
time	pelvis_tilt	pelvis_list	pelvis_rotation	pelvis_tx	pelvis_ty	pelvis_tz	hip_flexion_r	hip_adduction_r	hip_rotation_r	knee_angle_r	knee_angle_r_beta	ankle_angle_r	subtalar_angle_r	mtp_angle_r	hip_flexion_l	hip_adduction_l	hip_rotation_l	knee_angle_l	knee_angle_l_beta	ankle_angle_l	subtalar_angle_l	mtp_angle_l	lumbar_extension	lumbar_bending	lumbar_rotation	arm_flex_r	arm_add_r	arm_rot_r	elbow_flex_r	pro_sup_r	wrist_flex_r	wrist_dev_r	arm_flex_l	arm_add_l	arm_rot_l	elbow_flex_l	pro_sup_l	wrist_flex_l	wrist_dev_l
     36.81014286	     -2.64830039	     -4.80605795	      1.73352438	      1.08894047	      0.93315442	      0.52894368	      9.18141358	      3.75041376	    -13.26065502	     14.40611791	     14.40611791	      9.75380268	     -0.10335688	     -7.12564344	     32.22985048	    -11.43230642	      0.37811221	     40.07073574	     40.07073574	     10.06967979	    -18.50260794	     15.08384035	    -11.10108716	      5.17080192	      1.92720147	     19.49420631	    -19.87907907	      1.16921321	     59.88430165	     44.99463344	      0.00000000	      0.00000000	      3.94706521	     -9.76832545	    -10.68396434	     26.60290483	     47.28094434	      0.00000000	      0.00000000
     36.82278571	     -2.80419588	     -4.72440408	      2.05028060	      1.08779981	      0.93294064	      0.52839200	      9.00828761	      3.60678096	    -13.59437683	     14.32264347	     14.32264347	     10.02267880	      0.11625249	     -7.17966186	     32.32501143	    -10.94494273	      0.60049142	     36.95077856	     36.95077856	      8.95020437	    -18.06352760	     12.37393504	    -11.12632630	      5.08479363	      1.93840668	     20.24561013	    -20.04429505	      1.54646788	     61.38221216	     44.96739990	      0.00000000	      0.00000000	      3.44891989	     -9.66438946	    -11.66500804	     26.11077832	     47.37760113	      0.00000000	      0.00000000
     36.83542857	     -3.02562540	     -4.61025802	      2.32549586	      1.08665749	      0.93269935	      0.52779073	      8.88918390	      3.45819398	    -13.70439073	     14.19253654	     14.19253654	     10.21502809	      0.01865709	     -7.22866728	     32.55021202	    -10.38783977	      1.00908765	     34.22454077	     34.22454077	      8.95207451	    -17.05029454	     12.43643156	    -11.04579708	      4.93073439	      2.01224288	     21.06804693	    -19.96669559	      1.47964288	     61.98126378	     44.95702342	      0.00000000	      0.00000000	      2.94135670	     -9.67958069	    -11.74872624	     25.81138622	     47.37644970	      0.00000000	      0.00000000
     36.84807143	     -3.17795962	     -4.53416301	      2.62663917	      1.08569897	      0.93251047	      0.52705646	      8.66932439	      3.34471205	    -13.90411223	     14.04333244	     14.04333244	     10.44309453	      0.02541174	     -7.30438545	     32.67426098	     -9.90666306	      1.36217606	     31.71128467	     31.71128467	      8.90748577	    -15.69699880	     12.16846880	    -11.03340915	      4.84081040	      1.99514043	     21.89950252	    -19.79515968	      1.48375050	     62.74239717	     44.93925589	      0.00000000	      0.00000000	      2.43191149	     -9.71682093	    -11.85413507	     25.49615505	     47.37810357	      0.00000000	      0.00000000
     36.86071429	     -3.30634436	     -4.46575443	      2.89171315	      1.08489323	      0.93235918	      0.52627544	      8.37066268	      3.24266695	    -14.10611945	     13.81930568	     13.81930568	     10.64285191	      0.16507678	     -7.37682232	     32.71984911	     -9.50013201	      1.62256358	     29.42004616	     29.42004616	      8.84600838	    -13.99888696	     11.55030471	    -11.02189873	      4.75966683	      1.94870756	     22.67165394	    -19.59358740	      1.58134139	     63.59514721	     44.91641167	      0.00000000	      0.00000000	      1.94358630	     -9.73815692	    -11.99734378	     25.20208049	     47.38423520	      0.00000000	      0.00000000
     36.87335714	     -3.41135831	     -4.44158649	      3.12832071	      1.08427742	      0.93222443	      0.52544050	      7.99609529	      3.19869585	    -14.32588889	     13.51916692	     13.51916692	     10.85249730	      0.36574573	     -7.45770067	     32.72818373	     -9.20591254	      1.72333565	     27.43355315	     27.43355315	      8.69712963	    -12.19807428	     10.73312183	    -11.02236804	      4.71202690	      1.93576605	     23.34490555	    -19.42139898	      1.76981574	     64.43974397	     44.89255004	      0.00000000	      0.00000000	      1.50899378	     -9.74591210	    -12.18526441	     24.96559288	     47.39591488	      0.00000000	      0.00000000
     36.88600000	     -3.51592854	     -4.46980403	      3.33016170	      1.08387135	      0.93201127	      0.52451717	      7.60328750	      3.20881708	    -14.53809714	     13.20515932	     13.20515932	     11.01530919	      0.61489087	     -7.63463493	     32.66678867	     -8.99029506	      1.74439507	     25.65264937	     25.65264937	      7.96844043	    -10.74067627	      8.69014809	    -10.98138034	      4.73123178	      2.06741502	     23.84138309	    -19.49592237	      2.34625490	     65.39545478	     44.87703880	      0.00000000	      0.00000000	      1.15751065	     -9.65623471	    -12.82539251	     24.87141661	     47.44796332	      0.00000000	      0.00000000
     36.89864286	     -3.73961367	     -4.51674973	      3.52402418	      1.08352643	      0.93160716	      0.52346203	      7.39291643	      3.22585545	    -14.64689872	     13.00248672	     13.00248672	     11.24218884	      0.60652420	     -7.67675157	     32.79801044	     -8.72641022	      1.92565452	     24.38620221	     24.38620221	      7.84452324	     -9.73411831	      8.80557401	    -10.74725393	      4.76974293	      2.25814288	     24.34574110	    -19.36729179	      2.33908594	     65.71922539	     44.87108629	      0.00000000	      0.00000000	      0.87597043	     -9.62977172	    -12.85469655	     24.76548750	     47.44277578	      0.00000000	      0.00000000
     36.91128571	     -3.71782648	     -4.43006509	      3.64895470	      1.08372082	      0.93166978	      0.52240848	      6.69808804	      3.15539905	    -14.73685878	     12.46304838	     12.46304838	     11.42443691	      0.92149809	     -7.68779162	     32.47489924	     -8.48530312	      1.54756924	     23.28891832	     23.28891832	      7.68770028	     -8.63163947	      8.78157096	    -10.77613016	      4.62916348	      2.18000535	     24.76752764	    -18.87280944	      2.49882656	     66.31870148	     44.85282044	      0.00000000	      0.00000000	      0.46892146	     -9.71203226	    -12.93985074	     24.56128013	     47.44080268	      0.00000000	      0.00000000
     36.92392857	     -3.79069204	     -4.49981662	      3.77397322	      1.08406182	      0.93136633	      0.52124306	      6.16657175	      3.22336952	    -14.87188759	     12.04279151	     12.04279151	     11.60974918	      1.19489639	     -7.74278868	     32.30728712	     -8.37045619	      1.23759256	     22.61429126	     22.61429126	      7.43954868	     -8.03730210	      8.75733823	    -10.61534319	      4.71956259	      2.27315913	     25.11165293	    -18.58860483	      2.67558939	     66.76746337	     44.83784379	      0.00000000	      0.00000000	      0.16082564	     -9.72001402	    -13.02236701	     24.46588813	     47.44215033	      0.00000000	      0.00000000
     36.93657143	     -3.80977606	     -4.60680042	      3.83861802	      1.08471849	      0.93103009	      0.52015673	      5.54060968	      3.35011805	    -14.98737565	     11.58063439	     11.58063439	     11.80843580	      1.55004375	     -7.80860758	     32.00862805	     -8.34083258	      0.79946925	     22.19809935	     22.19809935	      7.07420272	     -7.77763789	      8.66155945	    -10.50684810	      4.78286565	      2.37660302	     25.37023506	    -18.28671276	      2.94639100	     67.25223585	     44.81894410	      0.00000000	      0.00000000	     -0.15855355	     -9.74181025	    -13.12904946	     24.43350552	     47.44585423	      0.00000000	      0.00000000
     36.94921429	     -3.90693456	     -4.75311646	      3.92384154	      1.08553567	      0.93030579	      0.51892195	      5.18419418	      3.46308897	    -15.03703121	     11.51319665	     11.51319665	     12.14469595	      1.54916833	     -7.91113920	     31.84776387	     -8.32071217	      0.41557461	     22.19572426	     22.19572426	      6.73632455	     -7.87974124	      8.77902163	    -10.23450357	      4.90040367	      2.62246897	     25.45981174	    -18.11514944	      3.02805473	     67.35988605	     44.81343900	      0.00000000	      0.00000000	     -0.31107102	     -9.76782395	    -13.15343208	     24.40158922	     47.44636284	      0.00000000	      0.00000000
     36.96185714	     -3.76353134	     -4.90595855	      3.89057738	      1.08691495	      0.93006811	      0.51776927	      4.15622790	      3.68365932	    -15.13958638	     10.69413057	     10.69413057	     12.25704581	      2.29551502	     -7.89819472	     31.08892718	     -8.39411880	     -0.14330849	     21.94708917	     21.94708917	      6.13164228	     -8.13706407	      8.35736856	    -10.21473133	      5.02090579	      2.60668657	     25.53412240	    -17.70512034	      3.63606205	     68.16819918	     44.77404542	      0.00000000	      0.00000000	     -0.77922201	     -9.81446919	    -13.35027156	     24.56596797	     47.45724018	      0.00000000	      0.00000000
     36.97450000	     -3.86515567	     -5.07996124	      3.90643236	      1.08818321	      0.92910620	      0.51642334	      3.80582977	      3.81016299	    -15.15611219	     10.67491816	     10.67491816	     12.62501613	      2.29618363	     -8.01545094	     30.71987858	     -8.44407855	     -0.64877248	     22.09358865	     22.09358865	      5.77008454	     -8.40076876	      8.45795732	     -9.86916083	      5.18013538	      2.81005372	     25.47228545	    -17.50754104	      3.75452276	     68.23392563	     44.76809258	      0.00000000	      0.00000000	     -0.90095402	     -9.85324267	    -13.37961698	     24.56674015	     47.45897482	      0.00000000	      0.00000000
     36.98714286	     -3.71332698	     -5.26225802	      3.81660425	      1.09000819	      0.92848256	      0.51509413	      2.90863649	      3.99095459	    -15.29402620	     10.20218105	     10.20218105	     12.92557677	      3.10742372	     -7.88833338	     29.84718889	     -8.51293933	     -0.97967947	     22.03015689	     22.03015689	      4.64323500	     -9.32618147	      6.58971325	     -9.81057228	      5.30109843	      2.90116614	     25.16665274	    -17.50987760	      5.18041915	     69.35606021	     44.70512010	      0.00000000	      0.00000000	     -1.53735349	     -9.85064211	    -13.93972947	     25.55836294	     47.50020723	      0.00000000	      0.00000000
     36.99978571	     -3.84098006	     -5.42664032	      3.86300475	      1.09157205	      0.92736446	      0.51348457	      2.59568526	      4.07971725	    -15.31372057	     10.23598453	     10.23598453	     13.22431835	      3.06110368	     -7.98034310	     29.38006423	     -8.51651818	     -1.26518656	     22.18166023	     22.18166023	      4.47262134	     -9.47647832	      6.65529068	     -9.36546956	      5.40390112	      2.96996129	     25.11220833	    -17.39683554	      5.23118527	     69.37710894	     44.70273819	      0.00000000	      0.00000000	     -1.55369095	     -9.89534831	    -13.95348804	     25.56909582	     47.50186133	      0.00000000	      0.00000000
